<svg width="150" height="150" viewBox="0 0 150 150" fill="none" xmlns="http://www.w3.org/2000/svg">
<g clip-path="url(#clip0)">
<path d="M115.915 28.0623C112.142 24.2888 106.022 24.1503 102.325 27.8466C102.301 27.8698 102.277 27.8938 102.253 27.9185L101.606 28.6375C93.8696 23.0462 85.4807 19.6669 77.6265 18.8946C69.3925 18.085 61.6538 20.199 56.0914 25.7614C49.6879 32.1649 48.8044 40.1207 50.9503 48.1593C53.047 56.0138 57.8729 64.1475 63.1379 72.283L17.0478 124.629L16.904 124.773C16.606 125.079 16.4406 125.491 16.4436 125.918C16.4466 126.346 16.6178 126.755 16.9201 127.057C17.2225 127.36 17.6317 127.531 18.0592 127.534C18.4868 127.537 18.8983 127.371 19.2049 127.073L19.3487 126.93L69.825 82.4932C74.9709 90.3309 79.6867 97.99 81.9047 104.711C84.2345 111.771 84.0058 117.494 79.1005 122.4C76.4136 125.087 72.6553 126.396 68.1712 126.354C63.687 126.313 58.5457 124.871 53.431 122.112C53.2421 122.008 53.0346 121.942 52.8204 121.919C52.6061 121.895 52.3893 121.914 52.1823 121.974C51.9753 122.034 51.7821 122.134 51.6139 122.269C51.4456 122.404 51.3055 122.57 51.2016 122.759C51.0978 122.948 51.0321 123.155 51.0084 123.37C50.9847 123.584 51.0035 123.801 51.0636 124.008C51.1237 124.215 51.224 124.408 51.3588 124.576C51.4936 124.744 51.6602 124.884 51.8491 124.988C57.3488 127.955 62.9886 129.578 68.1352 129.626C73.2819 129.674 78.0041 128.098 81.4014 124.701C87.2183 118.884 87.5314 111.314 84.9966 103.633C82.5423 96.1954 77.5479 88.3446 72.2697 80.3361L112.679 44.672C115.145 48.4697 116.853 52.3504 117.677 55.9968C119.052 62.0863 118.085 67.3091 114.765 70.6292C111.217 74.1764 105.556 75.3752 99.0897 73.6491C98.6701 73.5347 98.2223 73.5916 97.8448 73.8074C97.4672 74.0231 97.1908 74.38 97.0764 74.7996C96.962 75.2191 97.0189 75.6669 97.2346 76.0445C97.4504 76.4221 97.8073 76.6985 98.2268 76.8129C105.532 78.7628 112.551 77.4443 117.066 72.9301C121.37 68.6256 122.416 62.0602 120.876 55.2418C119.928 51.0394 117.988 46.6989 115.196 42.5149L116.059 41.724C116.084 41.7008 116.108 41.6768 116.131 41.6521C119.827 37.9557 119.689 31.8358 115.915 28.0623ZM113.614 30.3632C116.169 32.9177 116.23 36.8717 113.902 39.2793C113.878 39.3035 113.854 39.3272 113.83 39.3512L113.291 39.8185C112.006 38.1581 110.57 36.5232 109.012 34.965C108.978 34.9274 108.942 34.8914 108.905 34.8572C108.746 34.7132 108.561 34.6018 108.36 34.5292C108.159 34.4567 107.945 34.4246 107.732 34.4346C107.3 34.4548 106.894 34.6456 106.604 34.965C106.313 35.2845 106.161 35.7063 106.181 36.1378C106.201 36.5693 106.392 36.9751 106.711 37.266C108.236 38.7903 109.575 40.3859 110.81 42.0116L36.4258 107.552L104.626 30.1475L104.698 30.0756C107.106 27.7477 111.06 27.8087 113.614 30.3632ZM99.4132 31.1182L65.3669 69.7663C60.3569 61.9674 55.9359 54.2921 54.0781 47.3324C52.115 39.9784 52.7984 33.6562 58.3923 28.0623C63.1849 23.2697 69.8421 21.3932 77.3389 22.1303C84.4155 22.8261 92.1468 25.9169 99.4132 31.1182Z" fill="#030315"/>
</g>
<defs>
<clipPath id="clip0">
<rect width="150" height="150" fill="white"/>
</clipPath>
</defs>
</svg>
