<svg width="150" height="150" viewBox="0 0 150 150" fill="none" xmlns="http://www.w3.org/2000/svg">
<path d="M24.1838 129.854C24.4294 129.953 24.6841 130 24.935 130C25.6913 130 26.4115 129.573 26.7231 128.864C31.5949 117.785 36.1112 109.345 40.4827 102.649C43.4914 103.42 54.0819 105.906 65.7301 105.906C73.3947 105.906 81.5183 104.829 88.2352 101.479C110.726 90.2599 131.581 59.6913 127.475 16.6868C127.4 15.9066 126.822 15.2561 126.029 15.0595C125.237 14.8629 124.4 15.1634 123.94 15.8114C115.021 28.3338 88.0917 41.6675 58.4547 48.2348C46.588 50.8649 38.2123 57.0513 34.2351 66.1288C29.9051 76.01 31.2575 89.1273 37.6033 100.032C33.0068 106.989 28.2643 115.787 23.1468 127.426C22.7331 128.369 23.1959 129.457 24.1838 129.854ZM37.8127 67.562C41.2882 59.632 48.7291 54.1986 59.33 51.8492C87.3857 45.6318 112.377 33.8624 123.962 21.7183C126.037 60.5297 106.966 87.9513 86.4406 98.1899C72.0306 105.378 49.4596 100.934 42.7208 99.3597C51.5025 86.9337 59.8291 81.0564 69.4331 74.2875L70.2916 73.6828C78.2821 68.0479 84.2089 64.5089 89.4376 61.3867C98.54 55.9508 105.117 52.0235 115.344 41.2928C116.066 40.536 116.009 39.3626 115.218 38.6726C114.425 37.9826 113.199 38.037 112.478 38.7938C102.61 49.1473 96.223 52.9608 87.3831 58.2396C82.095 61.3978 76.1008 64.9763 67.9902 70.6978L67.1329 71.3013C57.3854 78.1703 48.9153 84.1415 40.0366 96.4934C35.0756 86.9336 34.1524 75.916 37.8127 67.562Z" fill="#030315"/>
</svg>
