<svg width="20" height="22" viewBox="0 0 20 22" fill="none" xmlns="http://www.w3.org/2000/svg">
<path d="M19.4532 8.90802C19.4153 8.68189 19.3051 8.47728 19.1416 8.32991C18.9782 8.18255 18.7719 8.10179 18.5589 8.10174H9.99825C9.87888 8.1017 9.76068 8.12704 9.65038 8.17631C9.54009 8.22557 9.43988 8.2978 9.35547 8.38886C9.27107 8.47992 9.20412 8.58803 9.15845 8.70701C9.11278 8.826 9.08929 8.95352 9.08932 9.0823V12.8753C9.08929 13.004 9.11278 13.1316 9.15845 13.2506C9.20412 13.3695 9.27107 13.4776 9.35547 13.5687C9.43988 13.6598 9.54009 13.732 9.65038 13.7813C9.76068 13.8305 9.87888 13.8559 9.99825 13.8558H13.5998C13.3432 14.3231 12.9914 14.7213 12.571 15.0202C11.8029 15.5457 10.9075 15.8136 9.99825 15.7901C9.05521 15.7785 8.13956 15.4465 7.38143 14.8414C6.62329 14.2362 6.06124 13.3886 5.77515 12.4192L5.77488 12.4175C5.45651 11.4109 5.45651 10.3188 5.77488 9.3121L5.7751 9.31048C6.06139 8.3412 6.62353 7.49389 7.38165 6.88893C8.13978 6.28396 9.05533 5.95209 9.99825 5.94048C10.5222 5.92751 11.0433 6.02632 11.5317 6.23124C12.0202 6.43616 12.4663 6.74315 12.8444 7.13458C13.0161 7.31163 13.2453 7.40915 13.4828 7.40629C13.7204 7.40343 13.9474 7.30041 14.1155 7.11926L16.7224 4.30685C16.8088 4.21379 16.8769 4.10291 16.9226 3.98083C16.9684 3.85875 16.9909 3.72797 16.9887 3.5963C16.9866 3.46464 16.9598 3.33479 16.9101 3.21453C16.8604 3.09426 16.7887 2.98604 16.6994 2.89634C14.8853 1.06142 12.4849 0.0522791 9.99825 0.0791359C8.14398 0.0732173 6.32505 0.626301 4.74657 1.67602C3.1681 2.72574 1.89287 4.23033 1.06469 6.02014L1.06335 6.02188C0.361226 7.52386 -0.00305543 9.18315 1.93035e-05 10.8653C0.00223093 12.5468 0.366244 14.2048 1.0634 15.7087L1.06473 15.7105C1.89291 17.5003 3.16813 19.0049 4.7466 20.0546C6.32506 21.1043 8.14398 21.6574 9.99825 21.6515C12.4391 21.7181 14.8111 20.7755 16.6286 19.0167L16.6293 19.0162L16.63 19.0154L16.6302 19.0153L16.6302 19.0152C17.6153 17.9928 18.3914 16.7594 18.9085 15.3943C19.4256 14.0292 19.6724 12.5625 19.633 11.0884C19.6334 10.3573 19.5732 9.6276 19.4532 8.90802ZM9.99825 2.04026C11.6989 2.0224 13.3594 2.59775 14.7324 3.68059L13.4111 5.10549C12.4093 4.35738 11.2166 3.96383 9.99825 3.97936C8.88593 3.98553 7.79522 4.31137 6.83839 4.92333C5.88156 5.53529 5.09317 6.41128 4.55439 7.46112L3.58255 6.64849L3.05083 6.20363C3.78231 4.92679 4.80505 3.87362 6.02136 3.14472C7.23766 2.41583 8.6069 2.03557 9.99825 2.04026ZM2.25366 13.7122C1.67256 11.866 1.67256 9.86458 2.25366 8.01843L3.87358 9.37341C3.66646 10.3551 3.66646 11.3745 3.87358 12.3563L2.25366 13.7122ZM9.99825 19.6904C8.60687 19.695 7.23762 19.3147 6.0213 18.5858C4.80499 17.8569 3.78223 16.8037 3.05075 15.5268L3.3947 15.239L4.55439 14.2685C5.09294 15.3187 5.88124 16.1949 6.83811 16.8071C7.79497 17.4193 8.88581 17.7452 9.99825 17.7513C11.0396 17.7645 12.0691 17.5122 13.0029 17.0151L14.5405 18.3029C13.1882 19.2428 11.6066 19.726 9.99825 19.6904ZM15.9298 16.9833L15.7635 16.844L14.5116 15.7956C15.168 15.0305 15.6092 14.0798 15.7838 13.0544C15.8082 12.9128 15.8034 12.7672 15.7697 12.6279C15.7361 12.4886 15.6744 12.359 15.5891 12.2483C15.5038 12.1376 15.3969 12.0485 15.276 11.9874C15.1552 11.9263 15.0234 11.8947 14.8899 11.8948H10.9072V10.0629H17.7685C17.7996 10.4018 17.8151 10.7447 17.8151 11.0884C17.8683 13.2347 17.1985 15.329 15.9298 16.9833H15.9298Z" fill="black"/>
</svg>
