<svg width="20" height="22" viewBox="0 0 20 22" fill="none" xmlns="http://www.w3.org/2000/svg">
<path d="M15.34 3.73268C15.1027 3.73268 14.8707 3.8086 14.6733 3.95085C14.476 4.0931 14.3222 4.29529 14.2313 4.53184C14.1405 4.76839 14.1168 5.02869 14.1631 5.27981C14.2094 5.53093 14.3236 5.7616 14.4915 5.94265C14.6593 6.1237 14.8731 6.24699 15.1059 6.29695C15.3387 6.3469 15.5799 6.32126 15.7992 6.22328C16.0185 6.12529 16.2059 5.95937 16.3378 5.74648C16.4696 5.53358 16.54 5.28329 16.54 5.02725C16.54 4.68391 16.4136 4.35463 16.1885 4.11185C15.9635 3.86907 15.6583 3.73268 15.34 3.73268ZM19.94 6.3434C19.9206 5.44831 19.7652 4.56272 19.48 3.72189C19.2257 3.00247 18.83 2.35103 18.32 1.8124C17.8248 1.25943 17.2196 0.835189 16.55 0.571769C15.7727 0.254772 14.9508 0.0832948 14.12 0.0647285C13.06 -6.02831e-08 12.72 0 10 0C7.28 0 6.94 -6.02831e-08 5.88 0.0647285C5.04915 0.0832948 4.22734 0.254772 3.45 0.571769C2.78168 0.837855 2.17693 1.26173 1.68 1.8124C1.16743 2.3466 0.774176 2.99956 0.53 3.72189C0.236161 4.5605 0.07721 5.44707 0.0599999 6.3434C-5.58794e-08 7.48693 0 7.85373 0 10.7881C0 13.7225 -5.58794e-08 14.0892 0.0599999 15.2328C0.07721 16.1291 0.236161 17.0157 0.53 17.8543C0.774176 18.5766 1.16743 19.2296 1.68 19.7638C2.17693 20.3144 2.78168 20.7383 3.45 21.0044C4.22734 21.3214 5.04915 21.4929 5.88 21.5115C6.94 21.5762 7.28 21.5762 10 21.5762C12.72 21.5762 13.06 21.5762 14.12 21.5115C14.9508 21.4929 15.7727 21.3214 16.55 21.0044C17.2196 20.741 17.8248 20.3167 18.32 19.7638C18.8322 19.2272 19.2283 18.5751 19.48 17.8543C19.7652 17.0135 19.9206 16.1279 19.94 15.2328C19.94 14.0892 20 13.7225 20 10.7881C20 7.85373 20 7.48693 19.94 6.3434ZM18.14 15.1033C18.1327 15.7881 18.0178 16.4666 17.8 17.1099C17.6403 17.5794 17.3839 18.0036 17.05 18.3505C16.7256 18.7071 16.3332 18.9832 15.9 19.1596C15.3037 19.3946 14.6748 19.5186 14.04 19.5264C13.04 19.5804 12.67 19.5912 10.04 19.5912C7.41 19.5912 7.04 19.5912 6.04 19.5264C5.38089 19.5398 4.72459 19.4303 4.1 19.2028C3.68578 19.0173 3.31136 18.7419 3 18.3937C2.66809 18.0471 2.41484 17.6226 2.26 17.1531C2.01586 16.5005 1.88044 15.8066 1.86 15.1033C1.86 14.0245 1.8 13.6254 1.8 10.7881C1.8 7.95082 1.8 7.55166 1.86 6.47285C1.86448 5.77277 1.98295 5.07897 2.21 4.42312C2.38605 3.96776 2.65627 3.56186 3 3.23643C3.30381 2.8655 3.67929 2.57091 4.1 2.37338C4.70955 2.13609 5.352 2.01206 6 2.00658C7 2.00658 7.37 1.94186 10 1.94186C12.63 1.94186 13 1.94186 14 2.00658C14.6348 2.01444 15.2637 2.13847 15.86 2.37338C16.3144 2.55532 16.7223 2.85113 17.05 3.23643C17.3777 3.56781 17.6338 3.97297 17.8 4.42312C18.0223 5.08004 18.1373 5.77355 18.14 6.47285C18.19 7.55166 18.2 7.95082 18.2 10.7881C18.2 13.6254 18.19 14.0245 18.14 15.1033ZM10 5.2538C8.98581 5.25593 7.99496 5.58233 7.15265 6.19174C6.31035 6.80115 5.65438 7.66623 5.26763 8.67767C4.88089 9.68912 4.78072 10.8015 4.97979 11.8744C5.17886 12.9472 5.66824 13.9323 6.38608 14.7052C7.10392 15.4781 8.01801 16.0041 9.01286 16.2168C10.0077 16.4295 11.0387 16.3193 11.9755 15.9001C12.9123 15.4809 13.7129 14.7715 14.2761 13.8617C14.8394 12.9518 15.14 11.8822 15.14 10.7881C15.1413 10.06 15.0092 9.33883 14.7512 8.66603C14.4933 7.99323 14.1146 7.38208 13.6369 6.86775C13.1592 6.35342 12.5919 5.94605 11.9678 5.66906C11.3436 5.39208 10.6749 5.25095 10 5.2538ZM10 14.3805C9.34139 14.3805 8.69757 14.1698 8.14995 13.7751C7.60234 13.3803 7.17552 12.8193 6.92348 12.1629C6.67144 11.5064 6.6055 10.7841 6.73398 10.0872C6.86247 9.39038 7.17963 8.75027 7.64533 8.24786C8.11104 7.74544 8.70439 7.4033 9.35035 7.26468C9.99631 7.12607 10.6659 7.19721 11.2743 7.46911C11.8828 7.74102 12.4029 8.20147 12.7688 8.79224C13.1347 9.38301 13.33 10.0776 13.33 10.7881C13.33 11.2599 13.2439 11.727 13.0765 12.1629C12.9092 12.5987 12.6639 12.9947 12.3547 13.3283C12.0454 13.6619 11.6784 13.9265 11.2743 14.1071C10.8703 14.2876 10.4373 14.3805 10 14.3805Z" fill="black"/>
</svg>
