<svg width="319" height="35" viewBox="0 0 319 35" fill="none" xmlns="http://www.w3.org/2000/svg">
<path d="M24.256 5.632C24.256 5.792 24.192 5.936 24.064 6.064C23.968 6.16 23.84 6.208 23.68 6.208H7.936C7.776 6.208 7.696 6.288 7.696 6.448V13.888C7.696 14.048 7.776 14.128 7.936 14.128H18.256C18.416 14.128 18.544 14.192 18.64 14.32C18.768 14.416 18.832 14.544 18.832 14.704V19.36C18.832 19.52 18.768 19.664 18.64 19.792C18.544 19.888 18.416 19.936 18.256 19.936H7.936C7.776 19.936 7.696 20.016 7.696 20.176V27.952C7.696 28.112 7.776 28.192 7.936 28.192H23.68C23.84 28.192 23.968 28.256 24.064 28.384C24.192 28.48 24.256 28.608 24.256 28.768V33.424C24.256 33.584 24.192 33.728 24.064 33.856C23.968 33.952 23.84 34 23.68 34H1.504C1.344 34 1.2 33.952 1.072 33.856C0.976 33.728 0.928 33.584 0.928 33.424V0.975999C0.928 0.815999 0.976 0.687999 1.072 0.591998C1.2 0.463998 1.344 0.399998 1.504 0.399998H23.68C23.84 0.399998 23.968 0.463998 24.064 0.591998C24.192 0.687999 24.256 0.815999 24.256 0.975999V5.632ZM48.2553 0.975999C48.2553 0.815999 48.3033 0.687999 48.3993 0.591998C48.5273 0.463998 48.6713 0.399998 48.8313 0.399998H54.4473C54.6073 0.399998 54.7353 0.463998 54.8313 0.591998C54.9593 0.687999 55.0233 0.815999 55.0233 0.975999V33.424C55.0233 33.584 54.9593 33.728 54.8313 33.856C54.7353 33.952 54.6073 34 54.4473 34H49.0233C48.7033 34 48.4793 33.872 48.3513 33.616L35.9193 13.072C35.8553 12.976 35.7913 12.944 35.7273 12.976C35.6633 12.976 35.6313 13.04 35.6313 13.168L35.7273 33.424C35.7273 33.584 35.6633 33.728 35.5353 33.856C35.4393 33.952 35.3113 34 35.1513 34H29.5353C29.3753 34 29.2313 33.952 29.1033 33.856C29.0073 33.728 28.9593 33.584 28.9593 33.424V0.975999C28.9593 0.815999 29.0073 0.687999 29.1033 0.591998C29.2313 0.463998 29.3753 0.399998 29.5353 0.399998H34.9593C35.2793 0.399998 35.5033 0.527998 35.6313 0.783998L48.0153 21.232C48.0793 21.328 48.1433 21.376 48.2073 21.376C48.2713 21.344 48.3033 21.264 48.3033 21.136L48.2553 0.975999ZM72.8331 34.528C70.3371 34.528 68.1291 34.016 66.2091 32.992C64.3211 31.968 62.8491 30.544 61.7931 28.72C60.7371 26.864 60.2091 24.736 60.2091 22.336V12.064C60.2091 9.696 60.7371 7.6 61.7931 5.776C62.8491 3.952 64.3211 2.544 66.2091 1.552C68.1291 0.527999 70.3371 0.0159998 72.8331 0.0159998C75.3611 0.0159998 77.5691 0.527999 79.4571 1.552C81.3771 2.544 82.8651 3.952 83.9211 5.776C84.9771 7.6 85.5051 9.696 85.5051 12.064V22.336C85.5051 24.736 84.9771 26.864 83.9211 28.72C82.8651 30.576 81.3771 32.016 79.4571 33.04C77.5691 34.032 75.3611 34.528 72.8331 34.528ZM72.8331 28.72C74.5931 28.72 76.0171 28.16 77.1051 27.04C78.1931 25.92 78.7371 24.432 78.7371 22.576V12.016C78.7371 10.16 78.1931 8.672 77.1051 7.552C76.0491 6.4 74.6251 5.824 72.8331 5.824C71.0731 5.824 69.6491 6.4 68.5611 7.552C67.5051 8.672 66.9771 10.16 66.9771 12.016V22.576C66.9771 24.432 67.5051 25.92 68.5611 27.04C69.6491 28.16 71.0731 28.72 72.8331 28.72ZM91.2696 34C91.1096 34 90.9656 33.952 90.8376 33.856C90.7416 33.728 90.6936 33.584 90.6936 33.424V0.975999C90.6936 0.815999 90.7416 0.687999 90.8376 0.591998C90.9656 0.463998 91.1096 0.399998 91.2696 0.399998H96.8856C97.0456 0.399998 97.1736 0.463998 97.2696 0.591998C97.3976 0.687999 97.4616 0.815999 97.4616 0.975999V27.952C97.4616 28.112 97.5416 28.192 97.7016 28.192H113.398C113.558 28.192 113.686 28.256 113.782 28.384C113.91 28.48 113.974 28.608 113.974 28.768V33.424C113.974 33.584 113.91 33.728 113.782 33.856C113.686 33.952 113.558 34 113.398 34H91.2696ZM140.319 34C139.999 34 139.791 33.84 139.695 33.52L138.255 28.816C138.191 28.688 138.111 28.624 138.015 28.624H126.207C126.111 28.624 126.031 28.688 125.967 28.816L124.575 33.52C124.479 33.84 124.271 34 123.951 34H117.855C117.663 34 117.519 33.952 117.423 33.856C117.327 33.728 117.311 33.552 117.375 33.328L127.743 0.879997C127.839 0.559998 128.047 0.399998 128.367 0.399998H135.903C136.223 0.399998 136.431 0.559998 136.527 0.879997L146.895 33.328C146.927 33.392 146.943 33.472 146.943 33.568C146.943 33.856 146.767 34 146.415 34H140.319ZM127.695 23.104C127.663 23.296 127.727 23.392 127.887 23.392H136.335C136.527 23.392 136.591 23.296 136.527 23.104L132.207 8.848C132.175 8.72 132.127 8.672 132.063 8.704C131.999 8.704 131.951 8.752 131.919 8.848L127.695 23.104ZM154.474 34.192C153.386 34.192 152.474 33.84 151.738 33.136C151.034 32.4 150.682 31.488 150.682 30.4C150.682 29.28 151.034 28.368 151.738 27.664C152.442 26.96 153.354 26.608 154.474 26.608C155.594 26.608 156.506 26.96 157.21 27.664C157.914 28.368 158.266 29.28 158.266 30.4C158.266 31.488 157.898 32.4 157.162 33.136C156.458 33.84 155.562 34.192 154.474 34.192ZM184.02 16.48C183.828 16.576 183.828 16.672 184.02 16.768C187.06 18.336 188.58 20.944 188.58 24.592C188.58 27.696 187.524 30.048 185.412 31.648C183.3 33.216 180.532 34 177.108 34H164.676C164.516 34 164.372 33.952 164.244 33.856C164.148 33.728 164.1 33.584 164.1 33.424V0.975999C164.1 0.815999 164.148 0.687999 164.244 0.591998C164.372 0.463998 164.516 0.399998 164.676 0.399998H176.724C184.308 0.399998 188.1 3.472 188.1 9.616C188.1 12.816 186.74 15.104 184.02 16.48ZM171.108 6.208C170.948 6.208 170.868 6.288 170.868 6.448V13.936C170.868 14.096 170.948 14.176 171.108 14.176H176.724C178.228 14.176 179.396 13.824 180.228 13.12C181.06 12.416 181.476 11.456 181.476 10.24C181.476 8.992 181.06 8.016 180.228 7.312C179.396 6.576 178.228 6.208 176.724 6.208H171.108ZM177.108 28.144C178.58 28.144 179.732 27.776 180.564 27.04C181.396 26.272 181.812 25.232 181.812 23.92C181.812 22.608 181.396 21.584 180.564 20.848C179.732 20.08 178.564 19.696 177.06 19.696H171.108C170.948 19.696 170.868 19.776 170.868 19.936V27.904C170.868 28.064 170.948 28.144 171.108 28.144H177.108ZM213.397 34C213.077 34 212.869 33.84 212.773 33.52L211.333 28.816C211.269 28.688 211.189 28.624 211.093 28.624H199.285C199.189 28.624 199.109 28.688 199.045 28.816L197.653 33.52C197.557 33.84 197.349 34 197.029 34H190.933C190.741 34 190.597 33.952 190.501 33.856C190.405 33.728 190.389 33.552 190.453 33.328L200.821 0.879997C200.917 0.559998 201.125 0.399998 201.445 0.399998H208.981C209.301 0.399998 209.509 0.559998 209.605 0.879997L219.973 33.328C220.005 33.392 220.021 33.472 220.021 33.568C220.021 33.856 219.845 34 219.493 34H213.397ZM200.773 23.104C200.741 23.296 200.805 23.392 200.965 23.392H209.413C209.605 23.392 209.669 23.296 209.605 23.104L205.285 8.848C205.253 8.72 205.205 8.672 205.141 8.704C205.077 8.704 205.029 8.752 204.997 8.848L200.773 23.104ZM224.817 34C224.657 34 224.513 33.952 224.385 33.856C224.289 33.728 224.241 33.584 224.241 33.424V0.975999C224.241 0.815999 224.289 0.687999 224.385 0.591998C224.513 0.463998 224.657 0.399998 224.817 0.399998H230.433C230.593 0.399998 230.721 0.463998 230.817 0.591998C230.945 0.687999 231.009 0.815999 231.009 0.975999V33.424C231.009 33.584 230.945 33.728 230.817 33.856C230.721 33.952 230.593 34 230.433 34H224.817ZM255.282 34C254.962 34 254.738 33.856 254.61 33.568L248.61 20.272C248.546 20.144 248.45 20.08 248.322 20.08H243.858C243.698 20.08 243.618 20.16 243.618 20.32V33.424C243.618 33.584 243.554 33.728 243.426 33.856C243.33 33.952 243.202 34 243.042 34H237.426C237.266 34 237.122 33.952 236.994 33.856C236.898 33.728 236.85 33.584 236.85 33.424V0.975999C236.85 0.815999 236.898 0.687999 236.994 0.591998C237.122 0.463998 237.266 0.399998 237.426 0.399998H251.154C253.202 0.399998 254.994 0.815998 256.53 1.648C258.098 2.48 259.298 3.664 260.13 5.2C260.994 6.736 261.426 8.512 261.426 10.528C261.426 12.704 260.882 14.576 259.794 16.144C258.706 17.68 257.186 18.768 255.234 19.408C255.074 19.472 255.026 19.584 255.09 19.744L261.618 33.328C261.682 33.456 261.714 33.552 261.714 33.616C261.714 33.872 261.538 34 261.186 34H255.282ZM243.858 6.208C243.698 6.208 243.618 6.288 243.618 6.448V14.656C243.618 14.816 243.698 14.896 243.858 14.896H250.146C251.49 14.896 252.578 14.496 253.41 13.696C254.274 12.896 254.706 11.856 254.706 10.576C254.706 9.296 254.274 8.256 253.41 7.456C252.578 6.624 251.49 6.208 250.146 6.208H243.858ZM289.662 5.632C289.662 5.792 289.598 5.936 289.47 6.064C289.374 6.16 289.246 6.208 289.086 6.208H273.342C273.182 6.208 273.102 6.288 273.102 6.448V13.888C273.102 14.048 273.182 14.128 273.342 14.128H283.662C283.822 14.128 283.95 14.192 284.046 14.32C284.174 14.416 284.238 14.544 284.238 14.704V19.36C284.238 19.52 284.174 19.664 284.046 19.792C283.95 19.888 283.822 19.936 283.662 19.936H273.342C273.182 19.936 273.102 20.016 273.102 20.176V27.952C273.102 28.112 273.182 28.192 273.342 28.192H289.086C289.246 28.192 289.374 28.256 289.47 28.384C289.598 28.48 289.662 28.608 289.662 28.768V33.424C289.662 33.584 289.598 33.728 289.47 33.856C289.374 33.952 289.246 34 289.086 34H266.91C266.75 34 266.606 33.952 266.478 33.856C266.382 33.728 266.334 33.584 266.334 33.424V0.975999C266.334 0.815999 266.382 0.687999 266.478 0.591998C266.606 0.463998 266.75 0.399998 266.91 0.399998H289.086C289.246 0.399998 289.374 0.463998 289.47 0.591998C289.598 0.687999 289.662 0.815999 289.662 0.975999V5.632ZM305.886 34.384C303.326 34.384 301.086 33.984 299.166 33.184C297.246 32.352 295.758 31.184 294.702 29.68C293.678 28.144 293.166 26.368 293.166 24.352V23.296C293.166 23.136 293.214 23.008 293.31 22.912C293.438 22.784 293.582 22.72 293.742 22.72H299.214C299.374 22.72 299.502 22.784 299.598 22.912C299.726 23.008 299.79 23.136 299.79 23.296V24.016C299.79 25.296 300.382 26.384 301.566 27.28C302.75 28.144 304.35 28.576 306.366 28.576C308.062 28.576 309.326 28.224 310.158 27.52C310.99 26.784 311.406 25.888 311.406 24.832C311.406 24.064 311.15 23.424 310.638 22.912C310.126 22.368 309.422 21.904 308.526 21.52C307.662 21.104 306.27 20.544 304.35 19.84C302.206 19.104 300.382 18.352 298.878 17.584C297.406 16.816 296.158 15.776 295.134 14.464C294.142 13.12 293.646 11.472 293.646 9.52C293.646 7.6 294.142 5.92 295.134 4.48C296.126 3.04 297.502 1.936 299.262 1.168C301.022 0.4 303.054 0.0159998 305.358 0.0159998C307.79 0.0159998 309.95 0.447999 311.838 1.312C313.758 2.176 315.246 3.392 316.302 4.96C317.39 6.496 317.934 8.288 317.934 10.336V11.056C317.934 11.216 317.87 11.36 317.742 11.488C317.646 11.584 317.518 11.632 317.358 11.632H311.838C311.678 11.632 311.534 11.584 311.406 11.488C311.31 11.36 311.262 11.216 311.262 11.056V10.672C311.262 9.328 310.702 8.192 309.582 7.264C308.494 6.304 306.99 5.824 305.07 5.824C303.566 5.824 302.382 6.144 301.518 6.784C300.686 7.424 300.27 8.304 300.27 9.424C300.27 10.224 300.51 10.896 300.99 11.44C301.502 11.984 302.238 12.48 303.198 12.928C304.19 13.344 305.71 13.92 307.758 14.656C310.03 15.488 311.806 16.224 313.086 16.864C314.398 17.504 315.566 18.464 316.59 19.744C317.646 20.992 318.174 22.624 318.174 24.64C318.174 27.648 317.07 30.032 314.862 31.792C312.654 33.52 309.662 34.384 305.886 34.384Z" fill="white"/>
</svg>
