<svg width="359" height="59" viewBox="0 0 359 59" fill="none" xmlns="http://www.w3.org/2000/svg">
<rect width="359" height="59" fill="#030315"/>
<path d="M39.256 19.632C39.256 19.792 39.192 19.936 39.064 20.064C38.968 20.16 38.84 20.208 38.68 20.208H22.936C22.776 20.208 22.696 20.288 22.696 20.448V27.888C22.696 28.048 22.776 28.128 22.936 28.128H33.256C33.416 28.128 33.544 28.192 33.64 28.32C33.768 28.416 33.832 28.544 33.832 28.704V33.36C33.832 33.52 33.768 33.664 33.64 33.792C33.544 33.888 33.416 33.936 33.256 33.936H22.936C22.776 33.936 22.696 34.016 22.696 34.176V41.952C22.696 42.112 22.776 42.192 22.936 42.192H38.68C38.84 42.192 38.968 42.256 39.064 42.384C39.192 42.48 39.256 42.608 39.256 42.768V47.424C39.256 47.584 39.192 47.728 39.064 47.856C38.968 47.952 38.84 48 38.68 48H16.504C16.344 48 16.2 47.952 16.072 47.856C15.976 47.728 15.928 47.584 15.928 47.424V14.976C15.928 14.816 15.976 14.688 16.072 14.592C16.2 14.464 16.344 14.4 16.504 14.4H38.68C38.84 14.4 38.968 14.464 39.064 14.592C39.192 14.688 39.256 14.816 39.256 14.976V19.632ZM63.2553 14.976C63.2553 14.816 63.3033 14.688 63.3993 14.592C63.5273 14.464 63.6713 14.4 63.8313 14.4H69.4473C69.6073 14.4 69.7353 14.464 69.8313 14.592C69.9593 14.688 70.0233 14.816 70.0233 14.976V47.424C70.0233 47.584 69.9593 47.728 69.8313 47.856C69.7353 47.952 69.6073 48 69.4473 48H64.0233C63.7033 48 63.4793 47.872 63.3513 47.616L50.9193 27.072C50.8553 26.976 50.7913 26.944 50.7273 26.976C50.6633 26.976 50.6313 27.04 50.6313 27.168L50.7273 47.424C50.7273 47.584 50.6633 47.728 50.5353 47.856C50.4393 47.952 50.3113 48 50.1513 48H44.5353C44.3753 48 44.2313 47.952 44.1033 47.856C44.0073 47.728 43.9593 47.584 43.9593 47.424V14.976C43.9593 14.816 44.0073 14.688 44.1033 14.592C44.2313 14.464 44.3753 14.4 44.5353 14.4H49.9593C50.2793 14.4 50.5033 14.528 50.6313 14.784L63.0153 35.232C63.0793 35.328 63.1433 35.376 63.2073 35.376C63.2713 35.344 63.3033 35.264 63.3033 35.136L63.2553 14.976ZM87.8331 48.528C85.3371 48.528 83.1291 48.016 81.2091 46.992C79.3211 45.968 77.8491 44.544 76.7931 42.72C75.7371 40.864 75.2091 38.736 75.2091 36.336V26.064C75.2091 23.696 75.7371 21.6 76.7931 19.776C77.8491 17.952 79.3211 16.544 81.2091 15.552C83.1291 14.528 85.3371 14.016 87.8331 14.016C90.3611 14.016 92.5691 14.528 94.4571 15.552C96.3771 16.544 97.8651 17.952 98.9211 19.776C99.9771 21.6 100.505 23.696 100.505 26.064V36.336C100.505 38.736 99.9771 40.864 98.9211 42.72C97.8651 44.576 96.3771 46.016 94.4571 47.04C92.5691 48.032 90.3611 48.528 87.8331 48.528ZM87.8331 42.72C89.5931 42.72 91.0171 42.16 92.1051 41.04C93.1931 39.92 93.7371 38.432 93.7371 36.576V26.016C93.7371 24.16 93.1931 22.672 92.1051 21.552C91.0491 20.4 89.6251 19.824 87.8331 19.824C86.0731 19.824 84.6491 20.4 83.5611 21.552C82.5051 22.672 81.9771 24.16 81.9771 26.016V36.576C81.9771 38.432 82.5051 39.92 83.5611 41.04C84.6491 42.16 86.0731 42.72 87.8331 42.72ZM106.27 48C106.11 48 105.966 47.952 105.838 47.856C105.742 47.728 105.694 47.584 105.694 47.424V14.976C105.694 14.816 105.742 14.688 105.838 14.592C105.966 14.464 106.11 14.4 106.27 14.4H111.886C112.046 14.4 112.174 14.464 112.27 14.592C112.398 14.688 112.462 14.816 112.462 14.976V41.952C112.462 42.112 112.542 42.192 112.702 42.192H128.398C128.558 42.192 128.686 42.256 128.782 42.384C128.91 42.48 128.974 42.608 128.974 42.768V47.424C128.974 47.584 128.91 47.728 128.782 47.856C128.686 47.952 128.558 48 128.398 48H106.27ZM155.319 48C154.999 48 154.791 47.84 154.695 47.52L153.255 42.816C153.191 42.688 153.111 42.624 153.015 42.624H141.207C141.111 42.624 141.031 42.688 140.967 42.816L139.575 47.52C139.479 47.84 139.271 48 138.951 48H132.855C132.663 48 132.519 47.952 132.423 47.856C132.327 47.728 132.311 47.552 132.375 47.328L142.743 14.88C142.839 14.56 143.047 14.4 143.367 14.4H150.903C151.223 14.4 151.431 14.56 151.527 14.88L161.895 47.328C161.927 47.392 161.943 47.472 161.943 47.568C161.943 47.856 161.767 48 161.415 48H155.319ZM142.695 37.104C142.663 37.296 142.727 37.392 142.887 37.392H151.335C151.527 37.392 151.591 37.296 151.527 37.104L147.207 22.848C147.175 22.72 147.127 22.672 147.063 22.704C146.999 22.704 146.951 22.752 146.919 22.848L142.695 37.104ZM169.474 48.192C168.386 48.192 167.474 47.84 166.738 47.136C166.034 46.4 165.682 45.488 165.682 44.4C165.682 43.28 166.034 42.368 166.738 41.664C167.442 40.96 168.354 40.608 169.474 40.608C170.594 40.608 171.506 40.96 172.21 41.664C172.914 42.368 173.266 43.28 173.266 44.4C173.266 45.488 172.898 46.4 172.162 47.136C171.458 47.84 170.562 48.192 169.474 48.192ZM208.629 30.48C208.437 30.576 208.437 30.672 208.629 30.768C211.669 32.336 213.189 34.944 213.189 38.592C213.189 41.696 212.133 44.048 210.021 45.648C207.909 47.216 205.141 48 201.717 48H189.285C189.125 48 188.981 47.952 188.853 47.856C188.757 47.728 188.709 47.584 188.709 47.424V14.976C188.709 14.816 188.757 14.688 188.853 14.592C188.981 14.464 189.125 14.4 189.285 14.4H201.333C208.917 14.4 212.709 17.472 212.709 23.616C212.709 26.816 211.349 29.104 208.629 30.48ZM195.717 20.208C195.557 20.208 195.477 20.288 195.477 20.448V27.936C195.477 28.096 195.557 28.176 195.717 28.176H201.333C202.837 28.176 204.005 27.824 204.837 27.12C205.669 26.416 206.085 25.456 206.085 24.24C206.085 22.992 205.669 22.016 204.837 21.312C204.005 20.576 202.837 20.208 201.333 20.208H195.717ZM201.717 42.144C203.189 42.144 204.341 41.776 205.173 41.04C206.005 40.272 206.421 39.232 206.421 37.92C206.421 36.608 206.005 35.584 205.173 34.848C204.341 34.08 203.173 33.696 201.669 33.696H195.717C195.557 33.696 195.477 33.776 195.477 33.936V41.904C195.477 42.064 195.557 42.144 195.717 42.144H201.717ZM238.007 48C237.687 48 237.479 47.84 237.383 47.52L235.943 42.816C235.879 42.688 235.799 42.624 235.703 42.624H223.895C223.799 42.624 223.719 42.688 223.655 42.816L222.263 47.52C222.167 47.84 221.959 48 221.639 48H215.543C215.351 48 215.207 47.952 215.111 47.856C215.015 47.728 214.999 47.552 215.063 47.328L225.431 14.88C225.527 14.56 225.735 14.4 226.055 14.4H233.591C233.911 14.4 234.119 14.56 234.215 14.88L244.583 47.328C244.615 47.392 244.631 47.472 244.631 47.568C244.631 47.856 244.455 48 244.103 48H238.007ZM225.383 37.104C225.351 37.296 225.415 37.392 225.575 37.392H234.023C234.215 37.392 234.279 37.296 234.215 37.104L229.895 22.848C229.863 22.72 229.815 22.672 229.751 22.704C229.687 22.704 229.639 22.752 229.607 22.848L225.383 37.104ZM249.426 48C249.266 48 249.122 47.952 248.994 47.856C248.898 47.728 248.85 47.584 248.85 47.424V14.976C248.85 14.816 248.898 14.688 248.994 14.592C249.122 14.464 249.266 14.4 249.426 14.4H255.042C255.202 14.4 255.33 14.464 255.426 14.592C255.554 14.688 255.618 14.816 255.618 14.976V47.424C255.618 47.584 255.554 47.728 255.426 47.856C255.33 47.952 255.202 48 255.042 48H249.426ZM279.891 48C279.571 48 279.347 47.856 279.219 47.568L273.219 34.272C273.155 34.144 273.059 34.08 272.931 34.08H268.467C268.307 34.08 268.227 34.16 268.227 34.32V47.424C268.227 47.584 268.163 47.728 268.035 47.856C267.939 47.952 267.811 48 267.651 48H262.035C261.875 48 261.731 47.952 261.603 47.856C261.507 47.728 261.459 47.584 261.459 47.424V14.976C261.459 14.816 261.507 14.688 261.603 14.592C261.731 14.464 261.875 14.4 262.035 14.4H275.763C277.811 14.4 279.603 14.816 281.139 15.648C282.707 16.48 283.907 17.664 284.739 19.2C285.603 20.736 286.035 22.512 286.035 24.528C286.035 26.704 285.491 28.576 284.403 30.144C283.315 31.68 281.795 32.768 279.843 33.408C279.683 33.472 279.635 33.584 279.699 33.744L286.227 47.328C286.291 47.456 286.323 47.552 286.323 47.616C286.323 47.872 286.147 48 285.795 48H279.891ZM268.467 20.208C268.307 20.208 268.227 20.288 268.227 20.448V28.656C268.227 28.816 268.307 28.896 268.467 28.896H274.755C276.099 28.896 277.187 28.496 278.019 27.696C278.883 26.896 279.315 25.856 279.315 24.576C279.315 23.296 278.883 22.256 278.019 21.456C277.187 20.624 276.099 20.208 274.755 20.208H268.467ZM314.272 19.632C314.272 19.792 314.208 19.936 314.08 20.064C313.984 20.16 313.856 20.208 313.696 20.208H297.952C297.792 20.208 297.712 20.288 297.712 20.448V27.888C297.712 28.048 297.792 28.128 297.952 28.128H308.272C308.432 28.128 308.56 28.192 308.656 28.32C308.784 28.416 308.848 28.544 308.848 28.704V33.36C308.848 33.52 308.784 33.664 308.656 33.792C308.56 33.888 308.432 33.936 308.272 33.936H297.952C297.792 33.936 297.712 34.016 297.712 34.176V41.952C297.712 42.112 297.792 42.192 297.952 42.192H313.696C313.856 42.192 313.984 42.256 314.08 42.384C314.208 42.48 314.272 42.608 314.272 42.768V47.424C314.272 47.584 314.208 47.728 314.08 47.856C313.984 47.952 313.856 48 313.696 48H291.52C291.36 48 291.216 47.952 291.088 47.856C290.992 47.728 290.944 47.584 290.944 47.424V14.976C290.944 14.816 290.992 14.688 291.088 14.592C291.216 14.464 291.36 14.4 291.52 14.4H313.696C313.856 14.4 313.984 14.464 314.08 14.592C314.208 14.688 314.272 14.816 314.272 14.976V19.632ZM330.495 48.384C327.935 48.384 325.695 47.984 323.775 47.184C321.855 46.352 320.367 45.184 319.311 43.68C318.287 42.144 317.775 40.368 317.775 38.352V37.296C317.775 37.136 317.823 37.008 317.919 36.912C318.047 36.784 318.191 36.72 318.351 36.72H323.823C323.983 36.72 324.111 36.784 324.207 36.912C324.335 37.008 324.399 37.136 324.399 37.296V38.016C324.399 39.296 324.991 40.384 326.175 41.28C327.359 42.144 328.959 42.576 330.975 42.576C332.671 42.576 333.935 42.224 334.767 41.52C335.599 40.784 336.015 39.888 336.015 38.832C336.015 38.064 335.759 37.424 335.247 36.912C334.735 36.368 334.031 35.904 333.135 35.52C332.271 35.104 330.879 34.544 328.959 33.84C326.815 33.104 324.991 32.352 323.487 31.584C322.015 30.816 320.767 29.776 319.743 28.464C318.751 27.12 318.255 25.472 318.255 23.52C318.255 21.6 318.751 19.92 319.743 18.48C320.735 17.04 322.111 15.936 323.871 15.168C325.631 14.4 327.663 14.016 329.967 14.016C332.399 14.016 334.559 14.448 336.447 15.312C338.367 16.176 339.855 17.392 340.911 18.96C341.999 20.496 342.543 22.288 342.543 24.336V25.056C342.543 25.216 342.479 25.36 342.351 25.488C342.255 25.584 342.127 25.632 341.967 25.632H336.447C336.287 25.632 336.143 25.584 336.015 25.488C335.919 25.36 335.871 25.216 335.871 25.056V24.672C335.871 23.328 335.311 22.192 334.191 21.264C333.103 20.304 331.599 19.824 329.679 19.824C328.175 19.824 326.991 20.144 326.127 20.784C325.295 21.424 324.879 22.304 324.879 23.424C324.879 24.224 325.119 24.896 325.599 25.44C326.111 25.984 326.847 26.48 327.807 26.928C328.799 27.344 330.319 27.92 332.367 28.656C334.639 29.488 336.415 30.224 337.695 30.864C339.007 31.504 340.175 32.464 341.199 33.744C342.255 34.992 342.783 36.624 342.783 38.64C342.783 41.648 341.679 44.032 339.471 45.792C337.263 47.52 334.271 48.384 330.495 48.384Z" fill="white"/>
</svg>
