<svg width="95" height="95" viewBox="0 0 95 95" fill="none" xmlns="http://www.w3.org/2000/svg">
<circle cx="47.5" cy="47.5" r="46.5" stroke="black" stroke-width="2"/>
<path style="stroke:white" d="M23.94 31.76C23.94 31.8267 23.9133 31.8867 23.86 31.94C23.82 31.98 23.7667 32 23.7 32H16.88C16.8133 32 16.78 32.0333 16.78 32.1V35.84C16.78 35.9067 16.8133 35.94 16.88 35.94H21.46C21.5267 35.94 21.58 35.9667 21.62 36.02C21.6733 36.06 21.7 36.1133 21.7 36.18V37.7C21.7 37.7667 21.6733 37.8267 21.62 37.88C21.58 37.92 21.5267 37.94 21.46 37.94H16.88C16.8133 37.94 16.78 37.9733 16.78 38.04V41.9C16.78 41.9667 16.8133 42 16.88 42H23.7C23.7667 42 23.82 42.0267 23.86 42.08C23.9133 42.12 23.94 42.1733 23.94 42.24V43.76C23.94 43.8267 23.9133 43.8867 23.86 43.94C23.82 43.98 23.7667 44 23.7 44H14.7C14.6333 44 14.5733 43.98 14.52 43.94C14.48 43.8867 14.46 43.8267 14.46 43.76V30.24C14.46 30.1733 14.48 30.12 14.52 30.08C14.5733 30.0267 14.6333 30 14.7 30H23.7C23.7667 30 23.82 30.0267 23.86 30.08C23.9133 30.12 23.94 30.1733 23.94 30.24V31.76ZM34.4359 30.24C34.4359 30.1733 34.4559 30.12 34.4959 30.08C34.5493 30.0267 34.6093 30 34.6759 30H36.5159C36.5826 30 36.6359 30.0267 36.6759 30.08C36.7293 30.12 36.7559 30.1733 36.7559 30.24V43.76C36.7559 43.8267 36.7293 43.8867 36.6759 43.94C36.6359 43.98 36.5826 44 36.5159 44H34.7359C34.6026 44 34.5093 43.9467 34.4559 43.84L28.6959 34.4C28.6693 34.36 28.6426 34.3467 28.6159 34.36C28.5893 34.36 28.5759 34.3867 28.5759 34.44L28.6159 43.76C28.6159 43.8267 28.5893 43.8867 28.5359 43.94C28.4959 43.98 28.4426 44 28.3759 44H26.5359C26.4693 44 26.4093 43.98 26.3559 43.94C26.3159 43.8867 26.2959 43.8267 26.2959 43.76V30.24C26.2959 30.1733 26.3159 30.12 26.3559 30.08C26.4093 30.0267 26.4693 30 26.5359 30H28.3159C28.4493 30 28.5426 30.0533 28.5959 30.16L34.3359 39.6C34.3626 39.64 34.3893 39.66 34.4159 39.66C34.4426 39.6467 34.4559 39.6133 34.4559 39.56L34.4359 30.24ZM44.4148 44.2C43.4148 44.2 42.5282 44 41.7548 43.6C40.9815 43.1867 40.3815 42.6067 39.9548 41.86C39.5415 41.1133 39.3348 40.2533 39.3348 39.28V34.72C39.3348 33.76 39.5482 32.9133 39.9748 32.18C40.4015 31.4333 40.9948 30.86 41.7548 30.46C42.5282 30.0467 43.4148 29.84 44.4148 29.84C45.4282 29.84 46.3148 30.0467 47.0748 30.46C47.8482 30.86 48.4482 31.4333 48.8748 32.18C49.3015 32.9133 49.5148 33.76 49.5148 34.72V39.28C49.5148 40.2533 49.3015 41.1133 48.8748 41.86C48.4482 42.6067 47.8482 43.1867 47.0748 43.6C46.3148 44 45.4282 44.2 44.4148 44.2ZM44.4148 42.2C45.2548 42.2 45.9282 41.94 46.4348 41.42C46.9415 40.9 47.1948 40.2133 47.1948 39.36V34.7C47.1948 33.8333 46.9415 33.14 46.4348 32.62C45.9282 32.1 45.2548 31.84 44.4148 31.84C43.5882 31.84 42.9215 32.1 42.4148 32.62C41.9082 33.14 41.6548 33.8333 41.6548 34.7V39.36C41.6548 40.2133 41.9082 40.9 42.4148 41.42C42.9215 41.94 43.5882 42.2 44.4148 42.2ZM52.3367 44C52.2701 44 52.2101 43.98 52.1567 43.94C52.1167 43.8867 52.0967 43.8267 52.0967 43.76V30.24C52.0967 30.1733 52.1167 30.12 52.1567 30.08C52.2101 30.0267 52.2701 30 52.3367 30H54.1767C54.2434 30 54.2967 30.0267 54.3367 30.08C54.3901 30.12 54.4167 30.1733 54.4167 30.24V41.9C54.4167 41.9667 54.4501 42 54.5167 42H61.2167C61.2834 42 61.3367 42.0267 61.3767 42.08C61.4301 42.12 61.4567 42.1733 61.4567 42.24V43.76C61.4567 43.8267 61.4301 43.8867 61.3767 43.94C61.3367 43.98 61.2834 44 61.2167 44H52.3367ZM72.7298 44C72.5965 44 72.5098 43.9333 72.4698 43.8L71.8098 41.66C71.7832 41.6067 71.7498 41.58 71.7098 41.58H66.4298C66.3898 41.58 66.3565 41.6067 66.3298 41.66L65.6698 43.8C65.6298 43.9333 65.5432 44 65.4098 44H63.4098C63.3298 44 63.2698 43.98 63.2298 43.94C63.1898 43.8867 63.1832 43.8133 63.2098 43.72L67.5498 30.2C67.5898 30.0667 67.6765 30 67.8098 30H70.3098C70.4432 30 70.5298 30.0667 70.5698 30.2L74.9298 43.72C74.9432 43.7467 74.9498 43.78 74.9498 43.82C74.9498 43.94 74.8765 44 74.7298 44H72.7298ZM66.9498 39.64C66.9365 39.72 66.9632 39.76 67.0298 39.76H71.0898C71.1698 39.76 71.1965 39.72 71.1698 39.64L69.1098 32.94C69.0965 32.8867 69.0765 32.86 69.0498 32.86C69.0232 32.86 69.0032 32.8867 68.9898 32.94L66.9498 39.64ZM78.2186 44.04C77.8053 44.04 77.4653 43.9067 77.1986 43.64C76.9319 43.3733 76.7986 43.0333 76.7986 42.62C76.7986 42.2067 76.9319 41.8667 77.1986 41.6C77.4653 41.3333 77.8053 41.2 78.2186 41.2C78.6319 41.2 78.9653 41.3333 79.2186 41.6C79.4853 41.8667 79.6186 42.2067 79.6186 42.62C79.6186 43.0333 79.4853 43.3733 79.2186 43.64C78.9519 43.9067 78.6186 44.04 78.2186 44.04ZM22.28 60.7C22.2 60.74 22.2 60.78 22.28 60.82C23.64 61.46 24.32 62.56 24.32 64.12C24.32 65.3867 23.8933 66.3533 23.04 67.02C22.2 67.6733 21.1 68 19.74 68H14.7C14.6333 68 14.5733 67.98 14.52 67.94C14.48 67.8867 14.46 67.8267 14.46 67.76V54.24C14.46 54.1733 14.48 54.12 14.52 54.08C14.5733 54.0267 14.6333 54 14.7 54H19.58C21.0333 54 22.1533 54.3133 22.94 54.94C23.7267 55.5667 24.12 56.5133 24.12 57.78C24.12 59.18 23.5067 60.1533 22.28 60.7ZM16.88 56C16.8133 56 16.78 56.0333 16.78 56.1V59.8C16.78 59.8667 16.8133 59.9 16.88 59.9H19.58C20.2867 59.9 20.84 59.7333 21.24 59.4C21.6533 59.0533 21.86 58.58 21.86 57.98C21.86 57.3667 21.6533 56.8867 21.24 56.54C20.84 56.18 20.2867 56 19.58 56H16.88ZM19.74 65.98C20.4333 65.98 20.98 65.7933 21.38 65.42C21.7933 65.0467 22 64.54 22 63.9C22 63.2467 21.7933 62.74 21.38 62.38C20.9667 62.0067 20.4067 61.82 19.7 61.82H16.88C16.8133 61.82 16.78 61.8533 16.78 61.92V65.88C16.78 65.9467 16.8133 65.98 16.88 65.98H19.74ZM34.9173 68C34.784 68 34.6973 67.9333 34.6573 67.8L33.9973 65.66C33.9707 65.6067 33.9373 65.58 33.8973 65.58H28.6173C28.5773 65.58 28.544 65.6067 28.5173 65.66L27.8573 67.8C27.8173 67.9333 27.7307 68 27.5973 68H25.5973C25.5173 68 25.4573 67.98 25.4173 67.94C25.3773 67.8867 25.3707 67.8133 25.3973 67.72L29.7373 54.2C29.7773 54.0667 29.864 54 29.9973 54H32.4973C32.6307 54 32.7173 54.0667 32.7573 54.2L37.1173 67.72C37.1307 67.7467 37.1373 67.78 37.1373 67.82C37.1373 67.94 37.064 68 36.9173 68H34.9173ZM29.1373 63.64C29.124 63.72 29.1507 63.76 29.2173 63.76H33.2773C33.3573 63.76 33.384 63.72 33.3573 63.64L31.2973 56.94C31.284 56.8867 31.264 56.86 31.2373 56.86C31.2107 56.86 31.1907 56.8867 31.1773 56.94L29.1373 63.64ZM39.4461 68C39.3794 68 39.3194 67.98 39.2661 67.94C39.2261 67.8867 39.2061 67.8267 39.2061 67.76V54.24C39.2061 54.1733 39.2261 54.12 39.2661 54.08C39.3194 54.0267 39.3794 54 39.4461 54H41.2861C41.3528 54 41.4061 54.0267 41.4461 54.08C41.4994 54.12 41.5261 54.1733 41.5261 54.24V67.76C41.5261 67.8267 41.4994 67.8867 41.4461 67.94C41.4061 67.98 41.3528 68 41.2861 68H39.4461ZM52.3005 68C52.1671 68 52.0738 67.94 52.0205 67.82L49.3805 62.06C49.3538 62.0067 49.3138 61.98 49.2605 61.98H46.8605C46.7938 61.98 46.7605 62.0133 46.7605 62.08V67.76C46.7605 67.8267 46.7338 67.8867 46.6805 67.94C46.6405 67.98 46.5871 68 46.5205 68H44.6805C44.6138 68 44.5538 67.98 44.5005 67.94C44.4605 67.8867 44.4405 67.8267 44.4405 67.76V54.24C44.4405 54.1733 44.4605 54.12 44.5005 54.08C44.5538 54.0267 44.6138 54 44.6805 54H50.1805C50.9938 54 51.7138 54.1733 52.3405 54.52C52.9671 54.8533 53.4538 55.3333 53.8005 55.96C54.1471 56.5733 54.3205 57.28 54.3205 58.08C54.3205 59 54.0805 59.7867 53.6005 60.44C53.1338 61.08 52.4805 61.5267 51.6405 61.78C51.6138 61.78 51.5938 61.7933 51.5805 61.82C51.5671 61.8467 51.5671 61.8733 51.5805 61.9L54.4005 67.72C54.4271 67.7733 54.4405 67.8133 54.4405 67.84C54.4405 67.9467 54.3671 68 54.2205 68H52.3005ZM46.8605 56C46.7938 56 46.7605 56.0333 46.7605 56.1V60.08C46.7605 60.1467 46.7938 60.18 46.8605 60.18H49.8605C50.5005 60.18 51.0138 59.9933 51.4005 59.62C51.8005 59.2333 52.0005 58.7267 52.0005 58.1C52.0005 57.4733 51.8005 56.9667 51.4005 56.58C51.0138 56.1933 50.5005 56 49.8605 56H46.8605ZM66.1861 55.76C66.1861 55.8267 66.1594 55.8867 66.1061 55.94C66.0661 55.98 66.0128 56 65.9461 56H59.1261C59.0594 56 59.0261 56.0333 59.0261 56.1V59.84C59.0261 59.9067 59.0594 59.94 59.1261 59.94H63.7061C63.7728 59.94 63.8261 59.9667 63.8661 60.02C63.9194 60.06 63.9461 60.1133 63.9461 60.18V61.7C63.9461 61.7667 63.9194 61.8267 63.8661 61.88C63.8261 61.92 63.7728 61.94 63.7061 61.94H59.1261C59.0594 61.94 59.0261 61.9733 59.0261 62.04V65.9C59.0261 65.9667 59.0594 66 59.1261 66H65.9461C66.0128 66 66.0661 66.0267 66.1061 66.08C66.1594 66.12 66.1861 66.1733 66.1861 66.24V67.76C66.1861 67.8267 66.1594 67.8867 66.1061 67.94C66.0661 67.98 66.0128 68 65.9461 68H56.9461C56.8794 68 56.8194 67.98 56.7661 67.94C56.7261 67.8867 56.7061 67.8267 56.7061 67.76V54.24C56.7061 54.1733 56.7261 54.12 56.7661 54.08C56.8194 54.0267 56.8794 54 56.9461 54H65.9461C66.0128 54 66.0661 54.0267 66.1061 54.08C66.1594 54.12 66.1861 54.1733 66.1861 54.24V55.76ZM73.062 68.16C72.022 68.16 71.1154 67.9933 70.342 67.66C69.5687 67.3267 68.9687 66.86 68.542 66.26C68.1287 65.66 67.922 64.9533 67.922 64.14V63.64C67.922 63.5733 67.942 63.52 67.982 63.48C68.0354 63.4267 68.0954 63.4 68.162 63.4H69.942C70.0087 63.4 70.062 63.4267 70.102 63.48C70.1554 63.52 70.182 63.5733 70.182 63.64V64.02C70.182 64.6333 70.4554 65.1467 71.002 65.56C71.5487 65.96 72.2954 66.16 73.242 66.16C74.0554 66.16 74.6687 65.9867 75.082 65.64C75.4954 65.2933 75.702 64.8467 75.702 64.3C75.702 63.9267 75.5887 63.6133 75.362 63.36C75.1354 63.0933 74.8087 62.8533 74.382 62.64C73.9687 62.4267 73.342 62.16 72.502 61.84C71.5554 61.4933 70.7887 61.1667 70.202 60.86C69.6154 60.5533 69.122 60.14 68.722 59.62C68.3354 59.0867 68.142 58.4267 68.142 57.64C68.142 56.4667 68.5687 55.54 69.422 54.86C70.2754 54.18 71.4154 53.84 72.842 53.84C73.842 53.84 74.722 54.0133 75.482 54.36C76.2554 54.7067 76.8554 55.1933 77.282 55.82C77.7087 56.4333 77.922 57.1467 77.922 57.96V58.3C77.922 58.3667 77.8954 58.4267 77.842 58.48C77.802 58.52 77.7487 58.54 77.682 58.54H75.882C75.8154 58.54 75.7554 58.52 75.702 58.48C75.662 58.4267 75.642 58.3667 75.642 58.3V58.08C75.642 57.4533 75.382 56.9267 74.862 56.5C74.3554 56.06 73.6487 55.84 72.742 55.84C72.0087 55.84 71.4354 55.9933 71.022 56.3C70.622 56.6067 70.422 57.04 70.422 57.6C70.422 58 70.5287 58.3267 70.742 58.58C70.9554 58.8333 71.2754 59.0667 71.702 59.28C72.1287 59.48 72.7887 59.74 73.682 60.06C74.6287 60.42 75.382 60.7467 75.942 61.04C76.5154 61.3333 77.002 61.7467 77.402 62.28C77.8154 62.8 78.022 63.4533 78.022 64.24C78.022 65.44 77.5754 66.3933 76.682 67.1C75.802 67.8067 74.5954 68.16 73.062 68.16Z" fill="black"/>
</svg>
