<svg width="20" height="22" viewBox="0 0 20 22" fill="none" xmlns="http://www.w3.org/2000/svg">
<path d="M17.4582 11.8241C17.2382 11.8241 17.0082 11.7486 16.7882 11.6946C16.3427 11.5887 15.9049 11.4481 15.4782 11.2739C15.0143 11.0918 14.5043 11.1013 14.0465 11.3004C13.5887 11.4996 13.2153 11.8744 12.9982 12.3527L12.7782 12.8382C11.8042 12.2536 10.9092 11.5277 10.1182 10.6806C9.33295 9.82723 8.66 8.86168 8.11818 7.81092L8.53818 7.50885C8.98154 7.27466 9.32896 6.87185 9.51357 6.37793C9.69818 5.88401 9.70695 5.33388 9.53818 4.83341C9.3794 4.37213 9.24911 3.90002 9.14818 3.42017C9.09818 3.18283 9.05818 2.9347 9.02818 2.68658C8.90674 1.92669 8.5378 1.23854 7.9878 0.746057C7.43779 0.253578 6.74287 -0.0108677 6.02817 0.000342309H3.02817C2.5972 -0.00402313 2.17042 0.0918398 1.77688 0.281405C1.38334 0.47097 1.03228 0.749787 0.747599 1.09887C0.462918 1.44796 0.251302 1.85912 0.127155 2.30437C0.00300869 2.74962 -0.0307535 3.21849 0.0281672 3.67908C0.560906 8.19862 2.4742 12.3979 5.46583 15.6136C8.45745 18.8292 12.3569 20.878 16.5482 21.4363H16.9282C17.6656 21.4374 18.3776 21.1456 18.9282 20.6164C19.2446 20.3111 19.4973 19.9369 19.6697 19.5185C19.842 19.1001 19.9302 18.6469 19.9282 18.1891V14.9526C19.9159 14.2033 19.663 13.4817 19.2125 12.9112C18.7621 12.3406 18.142 11.9564 17.4582 11.8241ZM17.9582 18.2969C17.958 18.4501 17.9276 18.6015 17.869 18.741C17.8103 18.8805 17.7249 19.005 17.6182 19.106C17.5065 19.2101 17.3758 19.2879 17.2346 19.3343C17.0934 19.3808 16.9447 19.3949 16.7982 19.3758C13.0531 18.8577 9.57442 17.0094 6.91089 14.1223C4.24737 11.2352 2.55058 7.47362 2.08817 3.43095C2.07225 3.27293 2.0862 3.11306 2.12917 2.96102C2.17214 2.80897 2.24324 2.6679 2.33817 2.54633C2.43188 2.43126 2.54723 2.33903 2.67655 2.27578C2.80587 2.21254 2.94619 2.17973 3.08817 2.17954H6.08817C6.32072 2.17395 6.5478 2.256 6.73032 2.41156C6.91284 2.56711 7.03939 2.78644 7.08818 3.0318C7.12818 3.32667 7.17818 3.61795 7.23818 3.90563C7.3537 4.47432 7.50744 5.03318 7.69818 5.57778L6.29817 6.27901C6.17847 6.33826 6.0708 6.42243 5.98133 6.5267C5.89187 6.63097 5.82237 6.75327 5.77684 6.88659C5.73132 7.01991 5.71065 7.16162 5.71602 7.30358C5.7214 7.44554 5.75272 7.58496 5.80817 7.71383C7.24738 11.0395 9.72542 13.7129 12.8082 15.2655C13.0516 15.3734 13.3247 15.3734 13.5682 15.2655C13.6929 15.2174 13.8075 15.143 13.9054 15.0467C14.0032 14.9504 14.0823 14.8341 14.1382 14.7045L14.7582 13.1942C15.2752 13.3936 15.8028 13.5593 16.3382 13.6904C16.6049 13.7552 16.8749 13.8091 17.1482 13.8522C17.3756 13.9049 17.5789 14.0414 17.7231 14.2383C17.8673 14.4352 17.9434 14.6802 17.9382 14.9311L17.9582 18.2969Z" fill="white"/>
</svg>
