<svg width="150" height="150" viewBox="0 0 150 150" fill="none" xmlns="http://www.w3.org/2000/svg">
<g clip-path="url(#clip0)">
<path d="M124.886 74.5L132.741 60.5937C132.985 60.1464 133.045 59.6218 132.91 59.1308C132.774 58.6397 132.453 58.2205 132.014 57.9617L118.269 49.8104L118.053 33.881C118.053 33.36 117.846 32.8604 117.477 32.4921C117.109 32.1237 116.61 31.9168 116.089 31.9168L100.164 31.7007L92.0144 17.9516C91.7525 17.5161 91.332 17.1991 90.8413 17.0673C90.3506 16.9354 89.8279 16.9989 89.3831 17.2445L75.5 25.1011L61.5973 17.2445C61.1524 16.9989 60.6297 16.9354 60.1391 17.0673C59.6484 17.1991 59.2279 17.5161 58.9659 17.9516L50.8167 31.7007L34.8914 31.9168C34.3706 31.9168 33.8712 32.1237 33.5029 32.4921C33.1346 32.8604 32.9278 33.36 32.9278 33.881L32.7118 49.8104L18.9661 57.9617C18.5274 58.2205 18.2064 58.6397 18.0708 59.1308C17.9353 59.6218 17.9958 60.1464 18.2396 60.5937L26.0942 74.5L18.2396 88.4063C17.9958 88.8536 17.9353 89.3782 18.0708 89.8692C18.2064 90.3603 18.5274 90.7795 18.9661 91.0383L32.7118 99.1896L32.9278 115.119C32.9278 115.64 33.1346 116.14 33.5029 116.508C33.8712 116.876 34.3706 117.083 34.8914 117.083L50.8167 117.299L58.9659 131.048C59.2279 131.484 59.6484 131.801 60.1391 131.933C60.6297 132.065 61.1524 132.001 61.5973 131.756L75.5 123.899L89.4027 131.756C89.6922 131.912 90.0163 131.993 90.3453 131.991C90.6842 131.993 91.0178 131.907 91.3138 131.742C91.6097 131.577 91.8578 131.338 92.034 131.048L100.183 117.299L116.109 117.083C116.629 117.083 117.129 116.876 117.497 116.508C117.865 116.14 118.072 115.64 118.072 115.119L118.288 99.1896L132.034 91.0383C132.473 90.7795 132.794 90.3603 132.929 89.8692C133.065 89.3782 133.004 88.8536 132.76 88.4063L124.886 74.5ZM115.303 96.3808C115.013 96.553 114.772 96.797 114.604 97.0895C114.435 97.3819 114.345 97.7129 114.341 98.0504L114.145 113.155L99.0443 113.351C98.7069 113.355 98.376 113.445 98.0837 113.614C97.7913 113.782 97.5473 114.023 97.3752 114.314L89.6384 127.317L76.4622 119.931C76.1637 119.759 75.8251 119.668 75.4804 119.668C75.1357 119.668 74.797 119.759 74.4985 119.931L61.3616 127.317L53.6248 114.314C53.4527 114.023 53.2087 113.782 52.9163 113.614C52.624 113.445 52.2931 113.355 51.9557 113.351L36.8551 113.155L36.6587 98.07C36.6553 97.7325 36.5649 97.4016 36.3964 97.1091C36.2279 96.8167 35.9868 96.5726 35.6965 96.4005L22.7167 88.642L30.0805 75.4624C30.2528 75.1639 30.3435 74.8251 30.3435 74.4804C30.3435 74.1356 30.2528 73.7969 30.0805 73.4983L22.7167 60.358L35.6965 52.6192C35.9868 52.447 36.2279 52.203 36.3964 51.9105C36.5649 51.6181 36.6553 51.2871 36.6587 50.9496L36.8551 35.8451L51.9557 35.6487C52.2931 35.6453 52.624 35.5549 52.9163 35.3863C53.2087 35.2177 53.4527 34.9766 53.6248 34.6863L61.3616 21.6835L74.5378 29.0688C74.8363 29.2411 75.1749 29.3319 75.5196 29.3319C75.8643 29.3319 76.2029 29.2411 76.5015 29.0688L89.6384 21.6835L97.3752 34.6863C97.5473 34.9766 97.7913 35.2177 98.0837 35.3863C98.376 35.5549 98.7069 35.6453 99.0443 35.6487L114.145 35.8451L114.341 50.9496C114.345 51.2871 114.435 51.6181 114.604 51.9105C114.772 52.203 115.013 52.447 115.303 52.6192L128.283 60.358L120.92 73.5376C120.747 73.8362 120.656 74.1749 120.656 74.5196C120.656 74.8644 120.747 75.2031 120.92 75.5017L128.283 88.6813L115.303 96.3808ZM97.1003 57.2546C97.466 57.6226 97.6713 58.1204 97.6713 58.6393C97.6713 59.1582 97.466 59.6561 97.1003 60.0241C87.5715 69.6281 79.0203 80.1554 71.5727 91.4508C71.4167 91.7111 71.2025 91.9316 70.947 92.0952C70.6915 92.2588 70.4015 92.3609 70.0999 92.3936H69.9036C69.631 92.3954 69.361 92.3405 69.1109 92.2323C68.8607 92.1241 68.6358 91.965 68.4504 91.7651L53.8997 75.8356C53.7243 75.6461 53.588 75.4238 53.4986 75.1815C53.4091 74.9392 53.3682 74.6817 53.3782 74.4236C53.3883 74.1655 53.449 73.912 53.557 73.6774C53.665 73.4428 53.8182 73.2317 54.0077 73.0563C54.1972 72.8809 54.4195 72.7446 54.6617 72.6551C54.9039 72.5656 55.1613 72.5247 55.4194 72.5347C55.6774 72.5448 55.9309 72.6055 56.1654 72.7136C56.4 72.8216 56.6109 72.9748 56.7863 73.1644L69.609 87.1492C76.9024 76.4767 85.1439 66.4843 94.2334 57.2939C94.4143 57.0951 94.6342 56.9356 94.8793 56.8252C95.1244 56.7149 95.3895 56.6561 95.6583 56.6524C95.9271 56.6487 96.1937 56.7002 96.4418 56.8038C96.6898 56.9074 96.9139 57.0608 97.1003 57.2546Z" fill="#030315"/>
</g>
<defs>
<clipPath id="clip0">
<rect width="150" height="150" fill="white"/>
</clipPath>
</defs>
</svg>
