<svg width="22" height="22" viewBox="0 0 22 22" fill="none" xmlns="http://www.w3.org/2000/svg">
<path d="M16.2788 12.6418C16.236 12.6212 14.6321 11.8315 14.3471 11.7289C14.2308 11.6871 14.1061 11.6463 13.9736 11.6463C13.757 11.6463 13.5751 11.7542 13.4333 11.9662C13.2731 12.2044 12.7881 12.7713 12.6383 12.9407C12.6187 12.963 12.592 12.9897 12.576 12.9897C12.5616 12.9897 12.3134 12.8875 12.2383 12.8549C10.5178 12.1075 9.21184 10.3103 9.03276 10.0072C9.00719 9.96367 9.00612 9.94388 9.00591 9.94388C9.01219 9.92081 9.07005 9.86281 9.09991 9.83288C9.18726 9.74645 9.28191 9.63252 9.37348 9.52231C9.41684 9.4701 9.46026 9.41781 9.50291 9.36852C9.63576 9.21395 9.69491 9.09395 9.76348 8.95495L9.79941 8.88274C9.96684 8.5501 9.82384 8.26938 9.77762 8.17874C9.73969 8.10288 9.06248 6.46845 8.99048 6.29674C8.81733 5.88238 8.58855 5.68945 8.27062 5.68945C8.24112 5.68945 8.27062 5.68945 8.14691 5.69467C7.99626 5.70102 7.1759 5.80902 6.81319 6.03767C6.42855 6.28017 5.77783 7.05317 5.77783 8.4126C5.77783 9.6361 6.55426 10.7913 6.88762 11.2307C6.8959 11.2417 6.91112 11.2642 6.93319 11.2965C8.20983 13.161 9.80134 14.5427 11.4147 15.1872C12.9679 15.8076 13.7034 15.8793 14.1216 15.8793C14.1216 15.8793 14.1216 15.8793 14.1216 15.8793C14.2973 15.8793 14.438 15.8655 14.5621 15.8533L14.6408 15.8458C15.1773 15.7982 16.3565 15.1872 16.6247 14.4419C16.836 13.8548 16.8917 13.2134 16.7511 12.9806C16.6548 12.8223 16.4889 12.7427 16.2788 12.6418Z" fill="white"/>
<path d="M11.1953 0C5.23699 0 0.389555 4.811 0.389555 10.7245C0.389555 12.6371 0.901413 14.5094 1.87106 16.1479L0.0151263 21.6226C-0.0194452 21.7246 0.00626913 21.8375 0.0817692 21.9144C0.136269 21.97 0.210198 22 0.285698 22C0.314627 22 0.343769 21.9956 0.372198 21.9866L6.08077 20.1726C7.64292 21.0072 9.40849 21.4478 11.1953 21.4478C17.1531 21.4479 22 16.6374 22 10.7245C22 4.811 17.1531 0 11.1953 0ZM11.1953 19.2139C9.51392 19.2139 7.88542 18.7284 6.48556 17.8098C6.43849 17.7789 6.38385 17.763 6.32885 17.763C6.29977 17.763 6.27063 17.7674 6.24227 17.7764L3.38263 18.6854L4.30577 15.9619C4.33563 15.8738 4.3207 15.7766 4.2657 15.7014C3.1997 14.2449 2.6362 12.5239 2.6362 10.7245C2.6362 6.04286 6.47577 2.234 11.1952 2.234C15.9141 2.234 19.7532 6.04286 19.7532 10.7245C19.7533 15.4056 15.9142 19.2139 11.1953 19.2139Z" fill="white"/>
</svg>
