<svg id="Capa_1" data-name="Capa 1" xmlns="http://www.w3.org/2000/svg" viewBox="0 0 16 16"><defs><style>.cls-1{fill:#1d1d1b;}.cls-2{fill:#fff;}</style></defs><rect class="cls-1" width="16" height="16"/><path class="cls-2" d="M4.33,6.45v.43H6.55V8.64H4.33v.45H6.56v1.74h-4V4.68h4V6.45Z"/><path class="cls-2" d="M8,9.07a.88.88,0,1,1-.88.88A.87.87,0,0,1,8,9.07Z"/><path class="cls-2" d="M11.62,4.72c1.18,0,2.27.37,2.26,1.74A1,1,0,0,1,13,7.55c.68,0,1,.51,1,1.26a2,2,0,0,1-2.18,2H9.39V4.72Zm-.4,1.47v.68h.37c.2,0,.61-.07.61-.39s-.45-.3-.58-.3Zm0,2.51v.72h.69s.38,0,.38-.34-.36-.37-.87-.38h-.2Z"/></svg>